<svg xmlns="http://www.w3.org/2000/svg" viewBox="0 0 113.39 113.39"><defs><style>.cls-1{fill:#4c8e9f;}.cls-2{fill:red;}.cls-3{fill:#ff0;}.cls-4{fill:#5faaaf;}.cls-5{fill:#8a8786;}.cls-6{fill:#fff;}.cls-7{fill:#ffa957;}.cls-8{fill:#16264a;}</style></defs><g id="Capa_2" data-name="Capa 2"><g id="Capa_1-2" data-name="Capa 1"><path class="cls-1" d="M92.68,54.71h-72c0,.66-.05,1.32-.05,2A36.06,36.06,0,0,0,22.21,67.2h69a36.06,36.06,0,0,0,1.56-10.51Q92.74,55.7,92.68,54.71Z"/><path class="cls-2" d="M96.78,16.6A56.7,56.7,0,0,0,16.6,96.78,56.7,56.7,0,1,0,96.78,16.6ZM56.69,106A49.32,49.32,0,1,1,106,56.69,49.32,49.32,0,0,1,56.69,106Z"/><path class="cls-3" d="M56.69,7.38A49.32,49.32,0,1,0,106,56.69,49.31,49.31,0,0,0,56.69,7.38Zm0,85.36a36,36,0,1,1,36.05-36A36,36,0,0,1,56.69,92.74Z"/><path class="cls-4" d="M92.7,55.06a2.26,2.26,0,0,0,0,.26A2.26,2.26,0,0,1,92.7,55.06Z"/><path class="cls-4" d="M92.73,56.11h0v0Z"/><path class="cls-4" d="M20.66,56.05v.06h0Z"/><path class="cls-4" d="M20.68,55.32c0-.09,0-.17,0-.26C20.69,55.15,20.68,55.23,20.68,55.32Z"/><path class="cls-4" d="M92.68,54.71a36,36,0,0,0-72,0Z"/><path d="M17.86,46.43a3.68,3.68,0,0,1-1.16-.2.6.6,0,0,1-.36-.77l.86-2.23,0-.08a3.92,3.92,0,0,1-3,1.9h0a3.19,3.19,0,0,1-1.18-.24,3,3,0,0,1-1.89-2,4.49,4.49,0,0,1,.22-2.88,3.76,3.76,0,0,1,3.42-2.78,3.71,3.71,0,0,1,1.12.19.61.61,0,0,1,.35.3.59.59,0,0,1,0,.47l-.87,2.28c.74-.91,1.66-2,3.07-2a3.11,3.11,0,0,1,1.1.21,3.26,3.26,0,0,1,1.89,1.87,4.2,4.2,0,0,1-.11,3C20.7,45.35,19.38,46.43,17.86,46.43ZM18.43,42c-.26,0-.7.57-1.06,1v0a.54.54,0,0,1,.39-.15.44.44,0,0,1,.16,0,1.09,1.09,0,0,0,.24,0c.09,0,.3,0,.44-.38a.74.74,0,0,0,.05-.42s0-.09-.14-.13Zm-3.88-1.24c-.16,0-.3.11-.39.33a.44.44,0,0,0,0,.3.33.33,0,0,0,.15.11h.06c.2,0,.57-.41.89-.8a.64.64,0,0,1-.33.1.47.47,0,0,1-.17,0A.52.52,0,0,0,14.55,40.72Z"/><path class="cls-5" d="M20.84,43.33c-.71,1.85-2.18,2.94-3.94,2.34l.85-2.23a1.06,1.06,0,0,0,1.39-.69c.23-.62.08-1.13-.43-1.32-1.59-.61-2.38,4-5.42,2.83-1.63-.62-2-2.31-1.34-4.11s2.13-2.78,3.81-2.24l-.87,2.27a1,1,0,0,0-1.27.65A.81.81,0,0,0,14.06,42c1.5.58,2.45-3.94,5.33-2.84C20.84,39.73,21.61,41.32,20.84,43.33Z"/><path d="M22.18,36.63A5.38,5.38,0,0,1,19,35.54a5.37,5.37,0,0,1,3.16-9.63A5.38,5.38,0,0,1,25.34,27a5.19,5.19,0,0,1,1.08,7.43A5.27,5.27,0,0,1,22.18,36.63Zm-.31-7.37a1.7,1.7,0,0,0-1.38.76,1.73,1.73,0,0,0-.38,1.39,2.27,2.27,0,0,0,.94,1.34,2.38,2.38,0,0,0,1.4.53,1.73,1.73,0,0,0,1.39-.76,1.77,1.77,0,0,0,.36-1.39,2.29,2.29,0,0,0-.94-1.34A2.4,2.4,0,0,0,21.87,29.26Z"/><path class="cls-5" d="M26,34.1a4.72,4.72,0,1,1-1-6.61A4.65,4.65,0,0,1,26,34.1Zm-1.64-1.23a2.41,2.41,0,0,0-.69-3.55,2.45,2.45,0,1,0-2.92,3.9A2.41,2.41,0,0,0,24.31,32.87Z"/><path d="M30.93,29a.62.62,0,0,1-.47-.22l-5.72-7.23a.59.59,0,0,1,.09-.83l1.76-1.39a.58.58,0,0,1,.37-.13H27a.62.62,0,0,1,.39.22l4.28,5.41,1.85-1.46a.53.53,0,0,1,.36-.13H34a.62.62,0,0,1,.4.22l1.07,1.36a.58.58,0,0,1-.09.83l-4.07,3.22A.57.57,0,0,1,30.93,29Z"/><path class="cls-5" d="M27,19.8l4.65,5.87,2.3-1.83L35,25.2l-4.06,3.22L25.2,21.2Z"/><path d="M37.61,24.27a.6.6,0,0,1-.52-.32l-4.32-8.14A.6.6,0,0,1,33,15l2-1a.55.55,0,0,1,.28-.07.6.6,0,0,1,.52.32l4.32,8.14a.6.6,0,0,1-.25.8l-2,1.05A.58.58,0,0,1,37.61,24.27Z"/><path class="cls-5" d="M33.29,15.53l2-1,4.31,8.15-2,1.05Z"/><path d="M42.64,21.65a.52.52,0,0,1-.3-.08.56.56,0,0,1-.27-.35l-2.43-8.9a.59.59,0,0,1,.42-.72L42.22,11a.44.44,0,0,1,.16,0,.58.58,0,0,1,.39.15l3.65,3.21-1-3.61a.6.6,0,0,1,.41-.72L48,9.43l.16,0a.51.51,0,0,1,.29.08.55.55,0,0,1,.28.35l2.42,8.9a.58.58,0,0,1-.41.72l-2.17.59a.39.39,0,0,1-.15,0,.6.6,0,0,1-.39-.14l-3.65-3.2,1,3.59A.58.58,0,0,1,45,21l-2.17.59A.39.39,0,0,1,42.64,21.65Z"/><path class="cls-5" d="M48.17,10l2.42,8.89-2.16.59L43.31,15l1.49,5.48-2.16.59-2.43-8.89,2.17-.59L47.5,16.1,46,10.59Z"/><path d="M60.41,19.39l-2.24-.16a.59.59,0,0,1-.55-.63l.48-6.81-1.85-.13a.6.6,0,0,1-.41-.2A.6.6,0,0,1,55.7,11l.12-1.79a.6.6,0,0,1,.59-.55h0l7.12.5a.57.57,0,0,1,.4.2.56.56,0,0,1,.14.43L64,11.61a.59.59,0,0,1-.59.55h0L61.51,12,61,18.84a.6.6,0,0,1-.2.41.62.62,0,0,1-.39.14Z"/><path class="cls-5" d="M56.41,9.28l7.12.49-.13,1.8L61,11.4l-.51,7.4-2.24-.15.51-7.41-2.43-.17Z"/><path d="M71.28,21.85a5.68,5.68,0,0,1-1.86-.32,5.21,5.21,0,0,1-3.24-6.8,5.21,5.21,0,0,1,4.93-3.54,5.6,5.6,0,0,1,1.88.33,5.3,5.3,0,0,1,3,2.67,5.22,5.22,0,0,1,.18,4.11A5.21,5.21,0,0,1,71.28,21.85Zm-.08-7.43a1.89,1.89,0,0,0-1.74,1.48,2.25,2.25,0,0,0,0,1.63,1.73,1.73,0,0,0,1.08,1,2.08,2.08,0,0,0,.68.12,1.94,1.94,0,0,0,1.76-1.47,1.82,1.82,0,0,0-1-2.59A2.1,2.1,0,0,0,71.2,14.42Z"/><path class="cls-5" d="M69.61,21a4.63,4.63,0,0,1-2.87-6,4.72,4.72,0,0,1,8.9,3.17A4.61,4.61,0,0,1,69.61,21ZM70.3,19a2.4,2.4,0,0,0,3.19-1.7A2.45,2.45,0,1,0,68.9,15.7,2.4,2.4,0,0,0,70.3,19Z"/><path d="M81.9,27.65a4.8,4.8,0,0,1-2.82-1,4.44,4.44,0,0,1-1.85-2.73,4.35,4.35,0,0,1,.91-3.42l3.26-4.43a.55.55,0,0,1,.38-.23h.09a.61.61,0,0,1,.35.11L84,17.27a.6.6,0,0,1,.13.83l-3.27,4.44c-.58.8-.25,1.22.15,1.51a.95.95,0,0,0,1.51-.29l3.26-4.45a.55.55,0,0,1,.39-.23h.09a.6.6,0,0,1,.34.11l1.81,1.33a.59.59,0,0,1,.13.83l-3.25,4.43A4.16,4.16,0,0,1,81.9,27.65Z"/><path class="cls-5" d="M81.87,16.42l1.81,1.33-3.26,4.44a1.5,1.5,0,0,0,.27,2.34A1.51,1.51,0,0,0,83,24.1l3.27-4.44L88.1,21l-3.26,4.43a3.62,3.62,0,0,1-5.41.76,3.54,3.54,0,0,1-.81-5.33Z"/><path d="M89.32,36.92a.56.56,0,0,1-.46-.23l-1.57-2a.6.6,0,0,1-.08-.59l1.1-2.58-1.7,1.34a.63.63,0,0,1-.37.12.57.57,0,0,1-.46-.22L84.39,31a.6.6,0,0,1-.12-.43.62.62,0,0,1,.22-.4l7.26-5.68a.53.53,0,0,1,.36-.13h.07a.55.55,0,0,1,.39.23l2.33,3a4.23,4.23,0,0,1,1,2.94,3.34,3.34,0,0,1-4.74,2.77l-1.31,3.29a.61.61,0,0,1-.47.36ZM91.55,30a.73.73,0,0,0,.47.32h0a.76.76,0,0,0,.38-.16.56.56,0,0,0,.23-.34.75.75,0,0,0-.21-.5l-.49-.63-.87.68Z"/><path class="cls-5" d="M94.44,27.92c1.39,1.77,1.06,3.46-.2,4.45a2.68,2.68,0,0,1-3.36,0l-1.56,3.93-1.56-2,1.55-3.66L89,30.26,86.24,32.4l-1.38-1.76L92.11,25Zm-1.55,1L92,27.87l-1.8,1.41.86,1.09A1.15,1.15,0,1,0,92.89,29Z"/><path d="M94.87,44.81a3.81,3.81,0,0,1-3.38-2.51c-1-2.25-.45-4.3,1.42-5.21a.58.58,0,0,1,.26-.06l.2,0a.63.63,0,0,1,.34.32l1,2.18,0,.07c-.15-1.34-.26-3.22,1.77-4.11a3.28,3.28,0,0,1,1.32-.29,3.8,3.8,0,0,1,3.31,2.55c1,2.18.44,4.12-1.39,5a.58.58,0,0,1-.26.06.64.64,0,0,1-.2,0,.6.6,0,0,1-.34-.32l-1-2.23c.14,1.35.29,3.32-1.69,4.21A3.43,3.43,0,0,1,94.87,44.81Zm-.14-5a.58.58,0,0,1-.3.48.48.48,0,0,0-.24.72c.09.22.23.36.34.36l.11,0c.25-.11.17-.82.09-1.5Zm3.41-1.13a.27.27,0,0,0-.14,0c-.2.08-.16.67-.11,1.22a.6.6,0,0,1,.3-.4c.1-.05.35-.19.17-.61C98.34,38.89,98.25,38.7,98.14,38.7Z"/><path class="cls-5" d="M92,42.06c-.81-1.81-.54-3.62,1.14-4.44l1,2.18a1.05,1.05,0,0,0-.49,1.47c.26.6.74.85,1.23.63,1.56-.7-1.16-4.53,1.83-5.84,1.6-.71,3.07.2,3.86,2s.45,3.48-1.11,4.28l-1-2.22a1,1,0,0,0,.44-1.36.81.81,0,0,0-1.15-.52c-1.47.65,1,4.52-1.77,5.78C94.58,44.61,92.91,44,92,42.06Z"/><path d="M22.67,88.53a5.34,5.34,0,0,1-4.27-2.26,5.45,5.45,0,0,1,1.12-7.87A5.82,5.82,0,0,1,23,77.15a5.44,5.44,0,0,1,4.37,2.28A5.2,5.2,0,0,1,27.48,86a.56.56,0,0,1-.46.23h0a.59.59,0,0,1-.46-.23l-1.61-2.12a.6.6,0,0,1-.06-.63,1.58,1.58,0,0,0-.19-1.8,1.74,1.74,0,0,0-1.42-.75,2.57,2.57,0,0,0-1.54.59,2.48,2.48,0,0,0-1,1.47,1.74,1.74,0,0,0,.37,1.43,1.59,1.59,0,0,0,1.31.71,1.55,1.55,0,0,0,.37,0h.12a.58.58,0,0,1,.47.23L25,87.21a.59.59,0,0,1,.1.51.6.6,0,0,1-.34.39A5.33,5.33,0,0,1,22.67,88.53Z"/><path class="cls-5" d="M26.94,79.79A4.61,4.61,0,0,1,27,85.65l-1.61-2.12a2.18,2.18,0,0,0-.25-2.43c-.9-1.18-2.39-1.33-3.79-.27s-1.66,2.55-.76,3.73a2.2,2.2,0,0,0,2.27.89l1.61,2.12a4.62,4.62,0,0,1-5.62-1.66,4.82,4.82,0,0,1,1-7A4.82,4.82,0,0,1,26.94,79.79Z"/><path d="M33,98.08a5.69,5.69,0,0,1-4.77-8.93,5.57,5.57,0,0,1,4.63-2.52,5.89,5.89,0,0,1,3.28,1,5.55,5.55,0,0,1,1.51,7.88A5.57,5.57,0,0,1,33,98.08Zm.07-8a2.27,2.27,0,0,0-1.81,1.15,2.45,2.45,0,0,0-.49,1.72,1.94,1.94,0,0,0,.89,1.33,2,2,0,0,0,1.14.38,2.29,2.29,0,0,0,1.83-1.14,2,2,0,0,0-.39-3A2.1,2.1,0,0,0,33.08,90.06Z"/><path class="cls-5" d="M30.1,96.57a5.09,5.09,0,1,1,5.71-8.42,5.09,5.09,0,1,1-5.71,8.42Zm1.24-1.82a2.9,2.9,0,1,0-.56-3.87A2.6,2.6,0,0,0,31.34,94.75Z"/><path d="M46.3,104.27l-.18,0-6.71-2.09a.59.59,0,0,1-.38-.74l.54-1.76a.72.72,0,0,1,.2-.29l5-3.88-3-.93a.56.56,0,0,1-.35-.29.59.59,0,0,1,0-.45L42,91.93a.59.59,0,0,1,.56-.41.55.55,0,0,1,.18,0l6.7,2.09a.58.58,0,0,1,.39.74l-.55,1.75a.5.5,0,0,1-.2.29l-5,3.88,3,.94a.61.61,0,0,1,.35.28.64.64,0,0,1,0,.45l-.59,1.9A.59.59,0,0,1,46.3,104.27Z"/><path class="cls-5" d="M48.7,96l-5.9,4.57,4.08,1.27-.58,1.89-6.71-2.08.55-1.76L46,95.26,42,94l.59-1.89,6.71,2.08Z"/><path d="M56.29,105.49a4.79,4.79,0,0,1-3.3-1.24,4.64,4.64,0,0,1-1.32-3.54l.1-5.93a.6.6,0,0,1,.59-.58l2.43,0a.6.6,0,0,1,.42.18.54.54,0,0,1,.16.42l-.1,5.94a1.51,1.51,0,0,0,.27,1,1.11,1.11,0,0,0,.85.31h0c.48,0,1.13-.13,1.15-1.25l.1-5.94a.56.56,0,0,1,.18-.42.6.6,0,0,1,.41-.16l2.43,0a.59.59,0,0,1,.58.6l-.1,5.93a4.46,4.46,0,0,1-4.78,4.62Z"/><path class="cls-5" d="M52.36,94.79l2.42,0-.1,5.94c0,1.18.55,1.87,1.7,1.89a1.63,1.63,0,0,0,1.79-1.83l.1-5.94,2.42,0-.1,5.93a3.92,3.92,0,0,1-4.29,4,3.82,3.82,0,0,1-4-4.18Z"/><path d="M66.91,104.73a.63.63,0,0,1-.56-.41l-3.12-9.44a.59.59,0,0,1,0-.45.54.54,0,0,1,.34-.29l2.72-.9a.58.58,0,0,1,.63.18L70.82,98,71.19,92a.59.59,0,0,1,.41-.52l2.7-.9a.57.57,0,0,1,.18,0A.59.59,0,0,1,75,91l3.12,9.44a.58.58,0,0,1-.37.74l-2.3.76a.6.6,0,0,1-.45,0,.59.59,0,0,1-.3-.34L73.9,99l-.12,3.09a.59.59,0,0,1-.4.54l-1.86.61a.57.57,0,0,1-.18,0,.55.55,0,0,1-.46-.22l-2-2.43.85,2.58a.6.6,0,0,1-.37.75l-2.3.76A.63.63,0,0,1,66.91,104.73Z"/><path class="cls-5" d="M63.79,94.7l2.72-.9,4.81,5.66.46-7.4,2.7-.89,3.12,9.43-2.3.76L73.43,95.7l-.24,6.36-1.85.61-4-5,1.87,5.68-2.3.76Z"/><path d="M83,98h-.1a.6.6,0,0,1-.38-.24l-5.83-8a.6.6,0,0,1,.13-.83l4.93-3.57a.61.61,0,0,1,.35-.11h.09a.59.59,0,0,1,.38.23L83.75,87a.59.59,0,0,1-.13.82L81.13,89.6l.49.67,2.14-1.56a.66.66,0,0,1,.35-.11.6.6,0,0,1,.48.24l1.09,1.52a.57.57,0,0,1,.11.44.6.6,0,0,1-.24.38L83.4,92.74l.59.81,2.49-1.81a.66.66,0,0,1,.35-.11.6.6,0,0,1,.48.24l1.14,1.58a.59.59,0,0,1,.1.43.56.56,0,0,1-.24.39l-4.93,3.57A.6.6,0,0,1,83,98Z"/><path class="cls-5" d="M83.27,87.31l-3,2.15,1.18,1.63,2.63-1.9,1.1,1.51-2.63,1.91,1.28,1.76,3-2.15L88,93.79,83,97.36l-5.83-8,4.93-3.57Z"/><path d="M92.15,90.42a.55.55,0,0,1-.38-.15l-7.56-6.45a.59.59,0,0,1-.07-.83l1.57-1.84a.59.59,0,0,1,.4-.21h0a.57.57,0,0,1,.38.14l5.7,4.86,1.67-2a.62.62,0,0,1,.45-.2.54.54,0,0,1,.38.14l1.43,1.21a.57.57,0,0,1,.2.4.56.56,0,0,1-.14.43L92.6,90.21a.56.56,0,0,1-.4.2Z"/><path class="cls-5" d="M86.16,81.53l6.14,5.24,2.06-2.41,1.42,1.21-3.63,4.26-7.56-6.46Z"/><path class="cls-6" d="M71.52,55.51H69.9a.3.3,0,1,0,0,.6h.66c-.79.68-4.46,3.78-4.6,3.78H46.81L42.2,56.07a.3.3,0,0,0,.17-.26.3.3,0,0,0-.31-.3H40.57a.3.3,0,0,0,0,.6h1.06l5.2,4.3h0C55.75,69.22,64,62.24,66,60.33h0l5.26-4.22h.3a.3.3,0,1,0,0-.6Z"/><circle class="cls-6" cx="55.7" cy="29.91" r="4.07"/><circle class="cls-2" cx="99.17" cy="60.96" r="3.39"/><path class="cls-2" d="M100.21,64.56l-1,2.3-1-2.3Z"/><path class="cls-2" d="M97.9,64.48l-2.2,1.26.51-2.49Z"/><path class="cls-2" d="M93.55,59.13l2.52-.28-.64,2Z"/><path class="cls-2" d="M102.64,65.73l-2.2-1.25,1.69-1.23Z"/><path class="cls-2" d="M102.91,60.84l-.65-2,2.53.28Z"/><path class="cls-2" d="M100.21,57.36H98.13l1-2.31Z"/><path class="cls-2" d="M95.7,56.18l2.2,1.26-1.69,1.22Z"/><path class="cls-2" d="M102.64,56.18l-.51,2.48-1.69-1.22Z"/><path class="cls-2" d="M96.07,63.06l-2.52-.28,1.88-1.71Z"/><path class="cls-2" d="M102.91,61.07l1.88,1.71-2.53.28Z"/><circle class="cls-2" cx="14.11" cy="60.96" r="3.39"/><path class="cls-2" d="M15.15,64.56l-1,2.3-1-2.3Z"/><path class="cls-2" d="M12.84,64.48l-2.2,1.26.51-2.49Z"/><path class="cls-2" d="M8.49,59.13,11,58.85l-.65,2Z"/><path class="cls-2" d="M17.58,65.73l-2.2-1.25,1.69-1.23Z"/><path class="cls-2" d="M17.85,60.84l-.64-2,2.52.28Z"/><path class="cls-2" d="M15.15,57.36H13.07l1-2.31Z"/><path class="cls-2" d="M10.64,56.18l2.2,1.26-1.69,1.22Z"/><path class="cls-2" d="M17.58,56.18l-.51,2.48-1.69-1.22Z"/><path class="cls-2" d="M11,63.06l-2.53-.28,1.88-1.71Z"/><path class="cls-2" d="M17.85,61.07l1.88,1.71-2.52.28Z"/><path class="cls-7" d="M56.69,92.74A36.07,36.07,0,0,0,91.18,67.2h-69A36.06,36.06,0,0,0,56.69,92.74Z"/><path class="cls-8" d="M59.6,49.43s6.93-4.2,10.18-3.91a6.83,6.83,0,0,0-1.72,4.88s1.49-4.1,2.6-4.49c0,0-2.67,13.44,1.3,21.18l1.14.11h1.69c-.64-1.17-4.25-8.4-3.46-21.77,0,0,1.48,1.49,1.26,5.5,0,0,1.8-1.8.28-5,0,0,5.9,3.77,7.07,7,0,0,1.65-6-6.22-8.09,0,0,6.39-.63,9.11,1.8,0,0-1.72-5-8.64-4.06,0,0,3.13-2.1,5.82-2.1,0,0-1.57-1.8-5.1-.5,0,0,.45-.7.74-.8s-2.35-.72-4.43,2.92c0,0-1.6-4.51-6.16-5A7.65,7.65,0,0,1,67.54,41s-4.62-3.12-7.75.87c0,0,6.14-.19,8.35,2.19C68.14,44.08,61.19,42.17,59.6,49.43Z"/><path class="cls-8" d="M38.26,44.91C30.39,47,32,53,32,53c1.18-3.28,7.07-7,7.07-7-1.51,3.18.29,5,.29,5-.22-4,1.25-5.5,1.25-5.5.8,13.37-2.81,20.6-3.46,21.77h1.69L40,67.09c4-7.74,1.3-21.18,1.3-21.18,1.1.39,2.6,4.49,2.6,4.49a6.82,6.82,0,0,0-1.73-4.88c3.26-.29,10.19,3.91,10.19,3.91-1.6-7.26-8.55-5.35-8.55-5.35,2.21-2.38,8.35-2.19,8.35-2.19-3.12-4-7.74-.87-7.74-.87a7.66,7.66,0,0,1,2.47-3.86c-4.55.5-6.15,5-6.15,5-2.08-3.64-4.71-3-4.43-2.92s.74.8.74.8c-3.54-1.3-5.1.5-5.1.5,2.69,0,5.81,2.1,5.81,2.1-6.92-.95-8.63,4.06-8.63,4.06C31.86,44.28,38.26,44.91,38.26,44.91Z"/></g></g></svg>